<svg width="487" height="100" viewBox="0 0 487 100" xmlns="http://www.w3.org/2000/svg">
    <g fill="none" fill-rule="evenodd">
        <g fill="#FFF">
            <path d="M134.596 19.113h6.61c3.475 0 5.508 1.859 5.508 4.703 0 2.422-1.46 3.877-3.537 4.47l4.003 5.582h-3.072l-3.688-5.143h-3.218v5.143h-2.606V19.113zm6.42 7.314c1.864 0 3.052-.969 3.052-2.505 0-1.582-1.145-2.445-3.073-2.445h-3.793v4.95h3.814zm8.655 1.183v-8.497h2.606v8.39c0 2.741 1.418 4.214 3.75 4.214 2.309 0 3.73-1.39 3.73-4.107v-8.497h2.605v8.37c0 4.403-2.5 6.619-6.376 6.619-3.857 0-6.315-2.216-6.315-6.492zm15.604-1.119c0-4.193 3.157-7.63 7.65-7.63 2.732 0 4.387.95 5.805 2.298l-1.674 1.918c-1.186-1.096-2.456-1.835-4.152-1.835-2.84 0-4.895 2.322-4.895 5.25 0 2.888 2.055 5.248 4.895 5.248 1.822 0 2.986-.739 4.259-1.918l1.672 1.689c-1.546 1.6-3.242 2.61-6.016 2.61-4.323 0-7.544-3.35-7.544-7.63zm16.284-7.377h2.606v7.418l7.056-7.418h3.2l-6.166 6.345 6.441 8.408h-3.158l-5.064-6.638-2.309 2.36v4.278h-2.606V19.114zm15.35 0h10.998v2.321h-8.392v3.835h7.439v2.318h-7.439v3.963h8.496v2.316H196.91V19.114zm14.187 0h6.61c3.475 0 5.508 1.858 5.508 4.702 0 2.422-1.461 3.877-3.537 4.47l4.003 5.582h-3.072l-3.688-5.143h-3.219v5.143h-2.605V19.113zm6.42 7.313c1.864 0 3.052-.969 3.052-2.505 0-1.582-1.145-2.445-3.074-2.445h-3.793v4.95h3.815zm15.24-7.313h5.848c3.454 0 5.636 1.963 5.636 4.973 0 3.312-2.67 5.037-5.933 5.037h-2.945v4.743h-2.605V19.114zm5.637 7.67c1.969 0 3.199-1.091 3.199-2.674 0-1.729-1.25-2.634-3.2-2.634h-3.03v5.309h3.03zm12.28-7.775h2.418l6.524 14.86h-2.755l-1.503-3.561h-7.014l-1.527 3.56h-2.668l6.525-14.859zm3.73 9l-2.564-5.899-2.543 5.9h5.106zm19.558-8.895h2.605v6.133h7.078v-6.133h2.606v14.753h-2.606v-6.216h-7.078v6.216h-2.605V19.114zm-10.078 2.404h-4.703v-2.405h12.035v2.405h-4.705v12.35h-2.627v-12.35zm-139.363 0h-4.703v-2.405h12.035v2.405h-4.705v12.35h-2.627v-12.35zM431.668 44.167H417.62v36.23h10.094V52.965h4.111c6.036 0 10.043 3.466 10.043 9.263 0 5.956-4.007 9.267-10.043 9.267h-1.95l1.4 8.902h.186c13.113 0 20.761-7.765 20.761-18.219 0-10.558-7.543-18.01-20.554-18.01zm22.491 30.847l5.62-6.678c3.59 2.849 7.598 4.346 11.812 4.346 2.707 0 4.164-.93 4.164-2.586 0-1.503-1.197-2.33-6.14-3.467-7.756-1.758-13.739-3.935-13.739-11.49 0-6.728 5.36-11.595 14.101-11.595 6.193 0 11.032 1.656 14.988 4.815l-5.049 7.09c-3.329-2.329-6.972-3.572-10.197-3.572-2.446 0-3.642 1.037-3.642 2.434 0 1.655 1.248 2.381 6.296 3.518 8.378 1.812 13.581 4.502 13.581 11.387 0 7.403-5.88 11.8-14.727 11.8-6.453 0-12.592-2.015-17.068-6.002zM334.075 62.28c0-10.403 8.428-18.838 19.668-18.838 11.24 0 19.566 8.333 19.566 18.838 0 10.404-8.43 18.843-19.67 18.843-11.239 0-19.564-8.333-19.564-18.843zm28.93 0c0-5.225-3.799-9.78-9.365-9.78-5.516 0-9.212 4.448-9.212 9.78 0 5.23 3.8 9.784 9.315 9.784 5.568 0 9.262-4.452 9.262-9.784zm25.824-18.373h9.732l15.506 36.489h-10.824l-2.653-6.47h-14.05l-2.602 6.47h-10.616l15.507-36.489zm8.847 22.203l-4.059-10.298-4.11 10.298h8.17zm-78.62-21.95h-9.981v36.225h24.801l-1.87-8.544h-12.95V44.16zM168.874 61.568L176 80.42h10.954l-5.906-12.635c4.52-1.918 7.499-5.602 7.499-11.138v-.105c0-3.566-1.102-6.374-3.238-8.448-2.447-2.486-6.292-3.927-11.874-3.927h-17.232V80.42H166.3V52.86h6.616c1.917 0 3.405.463 4.338 1.378.726.695 1.128 1.673 1.128 2.924v.116c0 2.64-1.97 4.288-5.413 4.288h-4.096zm-38.13-8.602h-9.111l-1.816-8.797h31.95v8.797H140.84v27.433h-10.096V52.965zm62.414 11.543v-20.34h10.252V64.3c0 5.227 2.654 7.713 6.713 7.713 4.058 0 6.713-2.381 6.713-7.453V44.168h10.25v20.08c0 11.696-6.714 16.823-17.068 16.823-10.355 0-16.86-5.23-16.86-16.563zm38.676-2.228c0-10.558 8.17-18.838 19.202-18.838 7.44 0 12.071 3.209 15.296 7.66l-7.388 5.692c-2.082-2.586-4.527-4.192-8.013-4.192-5.099 0-8.69 4.296-8.69 9.678 0 5.435 3.591 9.68 8.69 9.68 3.799 0 6.036-1.762 8.222-4.4l7.596 5.383c-3.434 4.71-8.065 8.18-16.13 8.18-10.407 0-18.785-7.92-18.785-18.843zm39.247-18.113h10.095v14.698l12.54-14.698h11.968l-13.789 15.578 14.258 20.652H294.03l-9.159-13.46-3.694 4.09v9.37H271.08v-36.23z"/>
        </g>
        <path fill="#1688CA" d="M.01 99.981h100.482V.01H.01z"/>
        <path d="M65.649 25.918H34.852v-6.682H24.587v23.136h10.265V35.69H65.65v6.683h10.265V19.236H65.65v6.682zM55.384 59.566h10.265v9.771H34.852v-9.77h10.266V43.583h10.266v15.982zm-36.05 21.189V55.999l10.265 3.6v21.156H19.334zm51.568 0V59.599L81.167 56v24.756H70.902z" fill="#FFF"/>
    </g>
</svg>
